# xmcd
#
# Track frame offsets:
#	150
#	12040
#	21972
#	33507
#	46170
#	58067
#	68072
#	81947
#	94355
#	104172
#	115052
#	129775
#
# Disc length: 1855 seconds
#
# Revision: 1
# Processed by: cddbd v1.4PL0 Copyright (c) Steve Scherf et al.
# Submitted via: audiograbber 1.80.04
#
DISCID=9a073d0c
DTITLE=Willie Nelson - Broken Promises Disc 1
DYEAR=2001
DGENRE=Country
TTITLE0=Touch Me
TTITLE1=Half A Man
TTITLE2=I Hope So
TTITLE3=Any Old Arms Won't Do
TTITLE4=End Of Understanding
TTITLE5=Healing Hands Of Time
TTITLE6=Last Letter
TTITLE7=Shelter Of Your Arms
TTITLE8=Ashamed
TTITLE9=Suffer In Silence
TTITLE10=Face Of A Fighter
TTITLE11=Building Heartaches
EXTD=
EXTT0=
EXTT1=
EXTT2=
EXTT3=
EXTT4=
EXTT5=
EXTT6=
EXTT7=
EXTT8=
EXTT9=
EXTT10=
EXTT11=
PLAYORDER=
